<svg width="71" height="107" viewBox="0 0 71 107" fill="none" xmlns="http://www.w3.org/2000/svg">
<g clip-path="url(#clip0_230_452)">
<path d="M5.11986 79.7228L3.84003 77.6881C5.11998 76.1811 6.62578 74.222 8.50807 71.8861C10.3904 69.5502 12.1974 66.9882 14.2303 64.3509C16.2632 61.7136 18.1452 58.6994 20.0274 55.836C21.9097 52.9727 23.5663 50.2601 24.9216 47.6981C26.1517 45.608 27.1371 43.383 27.8581 41.0671C28.4604 39.0326 29.2885 37.7517 29.665 36.1693C30.0415 34.5869 30.418 32.9289 30.7192 31.4972C31.0204 30.0655 31.3214 28.182 31.5473 26.2982C31.7732 24.4143 32.2249 21.777 32.5261 19.215L36.2153 16.8037C36.2153 16.8037 35.312 26.2228 34.9355 30.5178C34.559 34.8129 34.4837 38.8818 33.9567 43.1015C33.5199 47.0381 32.8153 50.9405 31.8483 54.7812C31.2005 57.7894 30.1094 60.6843 28.6108 63.3713C27.8521 64.2924 26.9938 65.1265 26.0511 65.858L21.0816 69.5502L15.1338 73.6193L9.33617 77.3869L5.11986 79.7228Z" fill="#6A6A6A"/>
<path d="M52.7043 82.1338C50.702 82.2141 48.715 81.7527 46.9527 80.7979C45.1904 79.8431 43.7178 78.4303 42.6904 76.7084C40.0603 71.7601 38.8612 66.176 39.2273 60.5832C39.2273 57.4184 39.2273 53.048 39.2273 48.3762C39.2273 43.7043 40.1306 37.7514 40.5071 31.1205C40.8302 25.1144 41.4584 19.1287 42.3894 13.1866C43.2929 7.83662 44.5727 2.56194 44.5727 2.56194L48.9397 0C48.9397 1.7331 48.2621 3.9937 47.9609 6.63102C47.6597 9.26835 47.2832 12.2825 46.9821 15.4473C46.6809 18.6121 46.4552 21.7769 46.2293 25.0924C46.0035 28.4079 46.2293 31.422 45.7022 34.2853C45.1752 37.1487 45.7022 39.7107 45.7022 41.8206C45.4801 46.808 46.3007 51.787 48.1116 56.4389C48.8992 58.0934 50.1706 59.4692 51.7572 60.3843C53.3438 61.2993 55.1707 61.7104 56.996 61.5628C57.6933 61.5675 58.3703 61.7973 58.9265 62.2182C59.4827 62.639 59.8882 63.2285 60.0827 63.8987C60.7688 66.0651 61.0745 68.334 60.9862 70.6049C61.2985 73.8224 60.3543 77.0359 58.3512 79.5718C57.6456 80.3756 56.7771 81.0199 55.8035 81.4616C54.8298 81.9033 53.7733 82.1324 52.7043 82.1338Z" fill="#6A6A6A"/>
<path d="M49.8431 107L46.2292 103.534L43.8199 101.424C43.0782 100.799 42.2987 100.22 41.4858 99.6909V98.7867C42.0452 97.9516 42.6483 97.1466 43.2928 96.3753L45.8524 93.4365L48.4125 90.7239L50.1441 89.2168H51.0476C53.1015 90.4481 55.0418 91.8603 56.8452 93.4365C57.4372 93.9455 57.9221 94.5676 58.2711 95.2663C58.6202 95.9649 58.8265 96.7262 58.8782 97.5056C58.6378 99.3878 57.6965 101.11 56.2427 102.328C54.4694 104.043 52.5556 105.606 50.5209 107H49.8431Z" fill="#6A6A6A"/>
<path d="M52.7043 82.1337C52.0764 82.0903 51.4739 81.869 50.9672 81.4953C50.4605 81.1217 50.0706 80.6112 49.8432 80.0238C48.8623 77.8255 48.4483 75.4161 48.6387 73.0161C48.4954 70.1042 49.2296 67.2163 50.7466 64.7274C51.4283 63.6657 52.381 62.8057 53.5062 62.236C54.6313 61.6664 55.8878 61.4078 57.1462 61.4873C59.5118 61.5108 61.8266 60.8001 63.7719 59.4529C65.9489 57.9289 67.6049 55.7717 68.5153 53.2739L71.0001 53.8014C70.5752 57.4296 69.8192 61.0111 68.7414 64.5013C67.7867 67.6555 66.4729 70.6896 64.8261 73.5437C63.4957 75.976 61.6753 78.1056 59.4803 79.7978C57.5375 81.297 55.1575 82.1175 52.7043 82.1337Z" fill="#6A6A6A"/>
<path d="M5.12001 26.5239C3.90941 28.845 3.63992 31.544 4.36727 34.0591C5.18843 35.3496 6.2937 36.4346 7.59878 37.2313C8.90387 38.0281 10.3741 38.5153 11.8964 38.6554C12.395 38.6912 12.8689 38.8864 13.2484 39.2119C13.6279 39.5375 13.8928 39.9762 14.0044 40.4638C14.3006 42.0577 14.3006 43.6926 14.0044 45.2865C14.0478 47.6014 13.2446 49.8524 11.7457 51.616C10.5744 52.6807 9.03551 53.248 7.45403 53.1983C6.08964 53.2545 4.73824 52.9147 3.56261 52.2194C2.38699 51.5242 1.43731 50.5033 0.828328 49.2801C-0.502168 46.0062 -0.791271 42.4013 0.000229985 38.9569C0.000229985 36.6963 0.903601 33.9082 1.28006 30.3667C1.98479 26.8533 2.96677 23.4015 4.21654 20.0435" fill="#6A6A6A"/>
<path d="M7.75505 53.2739C7.30591 53.2101 6.88403 53.0206 6.53772 52.7273C6.19141 52.4341 5.93511 52.0489 5.79786 51.6162C5.20487 49.9773 5.02382 48.2177 5.27076 46.4923C5.31713 44.4038 6.00023 42.3792 7.22842 40.69C7.75973 39.9748 8.47331 39.4158 9.29452 39.0711C10.1157 38.7265 11.0143 38.609 11.8965 38.731C13.6017 38.8247 15.2983 38.4329 16.7901 37.6008C18.4045 36.584 19.6867 35.1171 20.4794 33.3809L22.2114 33.9084C21.7138 36.4731 21.0085 38.9932 20.103 41.4436C19.2213 43.6249 18.1375 45.719 16.8655 47.6979C15.7624 49.3525 14.3576 50.784 12.7246 51.9176C11.2459 52.8682 9.51115 53.3416 7.75505 53.2739Z" fill="#6A6A6A"/>
<path d="M20.1784 33.3808C21.7595 29.9146 22.8137 27.8802 21.2326 24.7154C19.6514 21.5506 16.0372 21.3999 13.0256 21.1738C12.527 21.1381 12.0531 20.9431 11.6736 20.6176C11.2941 20.292 11.0292 19.8531 10.9177 19.3655C10.6214 17.7716 10.6214 16.1367 10.9177 14.5428C10.8742 12.2279 11.6774 9.97691 13.1763 8.21327C14.3476 7.1486 15.8865 6.58126 17.468 6.63094C18.9094 6.6653 20.3144 7.08985 21.534 7.85936C22.7537 8.62888 23.7422 9.71453 24.3947 11.0013C25.9212 13.972 26.3733 17.3801 25.6745 20.6466C25.5699 23.3565 25.1144 26.0413 24.3193 28.6339C23.3405 32.0247 21.9101 36.169 20.1784 41.0669" fill="#6A6A6A"/>
<path d="M17.4678 6.40521C17.9169 6.46906 18.3388 6.65855 18.6851 6.95182C19.0314 7.24509 19.2881 7.63023 19.4254 8.06297C20.0184 9.70183 20.199 11.4615 19.952 13.1869C19.8917 15.2729 19.2104 17.2934 17.9948 18.9891C17.4635 19.7043 16.7499 20.2634 15.9287 20.608C15.1075 20.9527 14.2089 21.0701 13.3268 20.9481C11.6215 20.8544 9.92446 21.2463 8.43266 22.0784C6.81835 23.0951 5.53612 24.562 4.74345 26.2983L2.93652 25.7708C3.45929 23.204 4.18935 20.684 5.11982 18.2355C6.00148 16.0542 7.08534 13.9602 8.3573 11.9812C9.46039 10.3267 10.8652 8.8951 12.4982 7.7615C13.9617 6.77735 15.7077 6.30093 17.4678 6.40521Z" fill="#6A6A6A"/>
<path d="M22.0606 8.21347C18.1281 6.86765 14.3638 5.07253 10.8422 2.86354C8.73407 0.753677 6.32461 10.3987 8.35748 12.2071C12.449 13.3401 16.6879 13.8483 20.9311 13.7143L22.0606 8.21347Z" fill="#6A6A6A"/>
</g>
<defs>
<clipPath id="clip0_230_452">
<rect width="71" height="107" fill="white"/>
</clipPath>
</defs>
</svg>
